<svg width="152" height="152" viewBox="0 0 152 152" fill="none" xmlns="http://www.w3.org/2000/svg">
<g clip-path="url(#clip0_23829_5941)">
<path d="M118.618 140.28C130.498 140.28 140.128 130.65 140.128 118.77C140.128 106.89 130.498 97.26 118.618 97.26C106.739 97.26 97.1084 106.89 97.1084 118.77C97.1084 130.65 106.739 140.28 118.618 140.28Z" fill="#CA5654"/>
<path d="M147.649 1.67941e-06H121.289C120.463 -0.000602068 119.644 0.161585 118.881 0.477298C118.117 0.793011 117.423 1.25606 116.839 1.84L69.4588 49.22C69.0783 49.6031 68.5925 49.8643 68.0631 49.9704C67.5337 50.0765 66.9847 50.0226 66.4861 49.8156C65.9874 49.6086 65.5616 49.2579 65.2629 48.8082C64.9642 48.3584 64.8061 47.8299 64.8088 47.29V1.67941e-06H0.00879074V64.8H47.2988C47.8387 64.7973 48.3672 64.9554 48.817 65.2541C49.2667 65.5528 49.6174 65.9786 49.8244 66.4773C50.0314 66.9759 50.0853 67.5249 49.9792 68.0543C49.8731 68.5837 49.6119 69.0696 49.2288 69.45L1.84879 116.83C1.26485 117.415 0.8018 118.108 0.486087 118.872C0.170374 119.635 0.00818699 120.454 0.00879074 121.28V147.64C0.0114295 148.583 0.387347 149.487 1.05441 150.154C1.72146 150.821 2.62543 151.197 3.56879 151.2H61.2488C62.1922 151.197 63.0961 150.821 63.7632 150.154C64.4302 149.487 64.8062 148.583 64.8088 147.64V67.64C64.8088 67.271 64.8815 66.9056 65.0227 66.5647C65.1639 66.2237 65.3709 65.914 65.6318 65.653C65.8928 65.3921 66.2025 65.1851 66.5434 65.0439C66.8844 64.9027 67.2498 64.83 67.6188 64.83H147.619C148.562 64.8274 149.466 64.4514 150.133 63.7844C150.8 63.1173 151.176 62.2134 151.179 61.27V3.56C151.176 2.6218 150.804 1.72232 150.144 1.05611C149.483 0.389899 148.587 0.0105102 147.649 1.67941e-06Z" fill="url(#paint0_radial_23829_5941)"/>
</g>
<defs>
<radialGradient id="paint0_radial_23829_5941" cx="0" cy="0" r="1" gradientUnits="userSpaceOnUse" gradientTransform="translate(75.5938 75.6) rotate(90) scale(75.6 75.585)">
<stop stop-color="#58C658"/>
<stop offset="1" stop-color="#34AC34"/>
</radialGradient>
<clipPath id="clip0_23829_5941">
<rect width="151.2" height="151.2" fill="white" transform="translate(0.00878906)"/>
</clipPath>
</defs>
</svg>
